<?xml version="1.0" standalone="no"?><!DOCTYPE svg PUBLIC "-//W3C//DTD SVG 1.1//EN" "http://www.w3.org/Graphics/SVG/1.1/DTD/svg11.dtd"><svg t="1532259456296" class="icon" style="" viewBox="0 0 1024 1024" version="1.1" xmlns="http://www.w3.org/2000/svg" p-id="916" xmlns:xlink="http://www.w3.org/1999/xlink" width="200" height="200"><defs><style type="text/css"></style></defs><path d="M682.1376 996.4032l-128.3072-171.264 42.7008-85.8112-85.6064-85.504-85.7088 85.504 42.9056 85.8112-128.7168 171.264h342.7328z m14.3872-342.4768c-17.5616-11.9808-34.7648-52.0704-43.9808-71.9872-9.2672-1.3824-18.5856-2.6112-28.0576-3.9424 1.4848-30.8736 20.48-32.6144 28.0576-56.1152 6.5024-20.6336 0.6656-47.616 11.1616-66.9184 7.2192-13.312 23.6032-13.4144 31.8976-24.8832 7.3216-10.3424 12.3392-28.3648 14.6432-41.3184 3.9936-23.1424 7.8336-54.9888-3.1744-77.9264-6.4512-13.2096-10.3936-14.7456-12.288-30.6176-1.8432-19.5584 5.8368-82.944 6.144-96.8704 1.024-35.6352 0-38.4-8.6528-73.1136 0 0-10.2912-31.5904-26.7264-41.0112l-32.7168-5.5296-20.3264-18.688C531.0464-5.2224 443.648 29.9008 396.9024 48.9472c-67.4304 21.9648-110.08 87.8592-80.4352 228.9664 5.1712 24.1152-13.1072 34.816-11.8784 48.0768 2.6112 28.7744 3.2256 97.8432 30.2592 114.7904 2.6112 1.7408 21.8624 6.4 21.6064 5.0688 2.7136 28.0064 5.3248 56.1152 8.2432 84.0704 6.5536 18.4832 22.9376 20.6336 27.6992 46.8992l-20.8896 5.1712c-9.4208 19.968-26.5216 59.904-44.032 71.9872m118.784 211.6608l-162.8672-199.7824-159.8464 68.0448c-47.0016 19.968-103.0656 26.88-120.064 75.9296 0 33.3824-3.2256 151.5008-2.3552 195.0208h1021.696c1.0752-43.52-2.4064-161.536-2.4064-195.0208-16.9984-49.0496-73.0624-56.0128-119.808-75.9296-51.6608-21.8112-160.1536-68.0448-160.1536-68.0448l-157.2864 199.7824" fill="#ffffff" p-id="917"></path></svg>